<?xml version="1.0" standalone="no"?><!DOCTYPE svg PUBLIC "-//W3C//DTD SVG 1.1//EN" "http://www.w3.org/Graphics/SVG/1.1/DTD/svg11.dtd"><svg t="1660023477262" class="icon" viewBox="0 0 1024 1024" version="1.1" xmlns="http://www.w3.org/2000/svg" p-id="1360" xmlns:xlink="http://www.w3.org/1999/xlink" width="32" height="32"><defs><style type="text/css">@font-face { font-family: feedback-iconfont; src: url("//at.alicdn.com/t/font_1031158_u69w8yhxdu.woff2?t=1630033759944") format("woff2"), url("//at.alicdn.com/t/font_1031158_u69w8yhxdu.woff?t=1630033759944") format("woff"), url("//at.alicdn.com/t/font_1031158_u69w8yhxdu.ttf?t=1630033759944") format("truetype"); }
</style></defs><path d="M886.67 256.13H137.35c-5.2 0-9.41-4.21-9.41-9.41v-45.18c0-5.2 4.21-9.41 9.41-9.41h749.32c5.2 0 9.41 4.21 9.41 9.41v45.18c0.01 5.19-4.21 9.41-9.41 9.41zM886.67 545.22H137.35c-5.2 0-9.41-4.21-9.41-9.41v-45.18c0-5.2 4.21-9.41 9.41-9.41h749.32c5.2 0 9.41 4.21 9.41 9.41v45.18c0.01 5.2-4.21 9.41-9.41 9.41zM886.67 832.32H137.35c-5.2 0-9.41-4.21-9.41-9.41v-45.18c0-5.2 4.21-9.41 9.41-9.41h749.32c5.2 0 9.41 4.21 9.41 9.41v45.18c0.01 5.2-4.21 9.41-9.41 9.41z" fill="#ffffff" p-id="1361"></path></svg>