<?xml version="1.0" standalone="no"?><!DOCTYPE svg PUBLIC "-//W3C//DTD SVG 1.1//EN" "http://www.w3.org/Graphics/SVG/1.1/DTD/svg11.dtd"><svg t="1660037040826" class="icon" viewBox="0 0 1024 1024" version="1.1" xmlns="http://www.w3.org/2000/svg" p-id="8512" xmlns:xlink="http://www.w3.org/1999/xlink" width="32" height="32"><defs><style type="text/css">@font-face { font-family: feedback-iconfont; src: url("//at.alicdn.com/t/font_1031158_u69w8yhxdu.woff2?t=1630033759944") format("woff2"), url("//at.alicdn.com/t/font_1031158_u69w8yhxdu.woff?t=1630033759944") format("woff"), url("//at.alicdn.com/t/font_1031158_u69w8yhxdu.ttf?t=1630033759944") format("truetype"); }
</style></defs><path d="M893.614907 120.84472c-19.080745 0-31.801242 12.720497-31.801242 31.801242l0 737.78882c0 31.801242-31.801242 63.602484-63.602484 63.602484L238.509317 954.037267c-38.161491 0-82.68323-31.801242-82.68323-63.602484l0-69.962733c0-31.801242 38.161491-50.881988 76.322981-50.881988l534.26087 0c19.080745 0 31.801242-12.720497 31.801242-31.801242L798.21118 114.484472c0-69.962733-50.881988-114.484472-127.204969-114.484472L238.509317 0C168.546584 0 98.583851 38.161491 98.583851 114.484472l0 782.310559c0 0 0 0 0 6.360248 0 6.360248 0 6.360248 0 12.720497 6.360248 57.242236 63.602484 101.763975 120.84472 108.124224 0 0 6.360248 0 6.360248 0 0 0 0 0 6.360248 0l566.062112 0c69.962733 0 127.204969-57.242236 127.204969-120.84472L925.416149 152.645963C925.416149 139.925466 912.695652 120.84472 893.614907 120.84472zM772.770186 833.192547 251.229814 833.192547c-19.080745 0-31.801242 12.720497-31.801242 31.801242s12.720497 31.801242 31.801242 31.801242l521.540373 0c19.080745 0 31.801242-12.720497 31.801242-31.801242S791.850932 833.192547 772.770186 833.192547z" p-id="8513" fill="#ffffff"></path></svg>