<?xml version="1.0" standalone="no"?><!DOCTYPE svg PUBLIC "-//W3C//DTD SVG 1.1//EN" "http://www.w3.org/Graphics/SVG/1.1/DTD/svg11.dtd"><svg t="1660036651973" class="icon" viewBox="0 0 1024 1024" version="1.1" xmlns="http://www.w3.org/2000/svg" p-id="4415" xmlns:xlink="http://www.w3.org/1999/xlink" width="32" height="32"><defs><style type="text/css">@font-face { font-family: feedback-iconfont; src: url("//at.alicdn.com/t/font_1031158_u69w8yhxdu.woff2?t=1630033759944") format("woff2"), url("//at.alicdn.com/t/font_1031158_u69w8yhxdu.woff?t=1630033759944") format("woff"), url("//at.alicdn.com/t/font_1031158_u69w8yhxdu.ttf?t=1630033759944") format("truetype"); }
</style></defs><path d="M512 42.666667C276.352 42.666667 85.333333 233.685333 85.333333 469.333333a426.666667 426.666667 0 0 0 238.762667 383.146667 42.666667 42.666667 0 0 0 37.632-76.586667 341.333333 341.333333 0 1 1 300.544 0 42.666667 42.666667 0 0 0 37.632 76.586667A426.666667 426.666667 0 0 0 938.666667 469.333333c0-235.648-191.018667-426.666667-426.666667-426.666666z" p-id="4416" fill="#ffffff"></path><path d="M234.666667 469.333333a277.333333 277.333333 0 1 1 452.992 214.613334 42.666667 42.666667 0 0 1-54.058667-66.005334 192 192 0 1 0-243.2 0 42.666667 42.666667 0 1 1-54.058667 66.005334A276.864 276.864 0 0 1 234.666667 469.333333z" p-id="4417" fill="#ffffff"></path><path d="M512 341.333333a128 128 0 1 0 0 256 128 128 0 0 0 0-256zM596.821333 676.949333C574.208 651.264 541.952 640 512 640s-62.250667 11.264-84.821333 36.949333c-10.666667 12.117333-15.061333 27.136-17.237334 37.162667a218.197333 218.197333 0 0 0-4.266666 36.522667c-1.066667 25.130667 0.469333 54.528 3.370666 82.56 2.858667 28.16 7.210667 56.277333 12.117334 79.104 2.474667 11.349333 5.205333 22.101333 8.192 31.232 2.261333 6.826667 6.784 19.882667 15.402666 29.696 18.218667 20.650667 43.946667 29.44 67.242667 29.44 23.338667 0 49.024-8.789333 67.242667-29.44 8.618667-9.813333 13.141333-22.826667 15.402666-29.696 2.986667-9.088 5.717333-19.882667 8.192-31.232 4.906667-22.826667 9.258667-50.986667 12.16-79.104 2.858667-28.032 4.394667-57.429333 3.328-82.56a218.026667 218.026667 0 0 0-4.266666-36.48c-2.176-10.069333-6.570667-25.088-17.237334-37.205334z" p-id="4418" fill="#ffffff"></path></svg>