<?xml version="1.0" standalone="no"?><!DOCTYPE svg PUBLIC "-//W3C//DTD SVG 1.1//EN" "http://www.w3.org/Graphics/SVG/1.1/DTD/svg11.dtd"><svg t="1660036904163" class="icon" viewBox="0 0 1024 1024" version="1.1" xmlns="http://www.w3.org/2000/svg" p-id="6905" xmlns:xlink="http://www.w3.org/1999/xlink" width="32" height="32"><defs><style type="text/css">@font-face { font-family: feedback-iconfont; src: url("//at.alicdn.com/t/font_1031158_u69w8yhxdu.woff2?t=1630033759944") format("woff2"), url("//at.alicdn.com/t/font_1031158_u69w8yhxdu.woff?t=1630033759944") format("woff"), url("//at.alicdn.com/t/font_1031158_u69w8yhxdu.ttf?t=1630033759944") format("truetype"); }
</style></defs><path d="M823.402985 943.761194h-611.343284c-84.059701 0-152.835821-68.776119-152.83582-152.835821v-439.402985c0-84.059701 68.776119-152.835821 152.83582-152.835821h611.343284c84.059701 0 152.835821 68.776119 152.835821 152.835821v439.402985c0 84.059701-68.776119 152.835821-152.835821 152.835821z m-611.343284-668.656716c-42.029851 0-76.41791 34.38806-76.41791 76.41791v439.402985c0 42.029851 34.38806 76.41791 76.41791 76.417911h611.343284c42.029851 0 76.41791-34.38806 76.417911-76.417911v-439.402985c0-42.029851-34.38806-76.41791-76.417911-76.41791h-611.343284z" fill="#ffffff" p-id="6906"></path><path d="M620.895522 269.373134c-5.731343 0-11.462687-1.910448-17.194029-5.731343-13.373134-9.552239-15.283582-26.746269-7.641792-40.119403l95.522389-133.731343c9.552239-13.373134 26.746269-15.283582 40.119403-7.641791 13.373134 9.552239 15.283582 26.746269 7.641791 40.119403l-95.522388 133.731343c-3.820896 7.641791-13.373134 13.373134-22.925374 13.373134zM414.567164 269.373134c-9.552239 0-17.19403-3.820896-22.925373-11.462686l-95.522388-133.731344c-9.552239-13.373134-5.731343-30.567164 7.641791-40.119403s30.567164-7.641791 40.119403 5.731344l95.522388 133.731343c9.552239 13.373134 5.731343 30.567164-7.641791 40.119403-5.731343 3.820896-11.462687 5.731343-17.19403 5.731343z" fill="#ffffff" p-id="6907"></path><path d="M447.044776 743.164179c-5.731343 0-11.462687-1.910448-15.283582-3.820895-11.462687-5.731343-19.104478-21.014925-19.104478-38.208956V441.313433c0-17.19403 7.641791-30.567164 19.104478-38.208955 11.462687-5.731343 26.746269-3.820896 42.029851 5.731343l177.671642 124.179104c13.373134 9.552239 21.014925 22.925373 21.014925 38.208956s-7.641791 28.656716-21.014925 38.208955l-177.671642 124.179104c-7.641791 7.641791-17.19403 9.552239-26.746269 9.552239z m3.820896-303.761194v265.552239h1.910447l177.671642-124.179105c3.820896-1.910448 5.731343-3.820896 5.731343-5.731343 0-1.910448-1.910448-3.820896-5.731343-5.731343L450.865672 439.402985c1.910448 0 0 0 0 0z" fill="#ffffff" p-id="6908"></path></svg>